<svg width="13" height="175" viewBox="0 0 13 175" fill="none" xmlns="http://www.w3.org/2000/svg">
<path d="M1.04002 0H12.17V1.39H1.21002L1.38002 7.42H0.190021L0.020021 1.03C2.10069e-05 0.380001 0.390021 0 1.04002 0Z" fill="#0000E9"/>
<path d="M1.38 10.65V13.05H7.6L7.45 11.28H8.64L8.81 13.2C8.88 14 8.43 14.3 7.65 14.3H1.38V16.71H0.190002V10.64H1.38V10.65ZM11.8 15.86H10.7L10.68 10.37H11.8V15.86Z" fill="#0000E9"/>
<path d="M12.17 20.22V28.07H10.98V21.61H6.2L6.54 27.27H5.33L4.99 21.61H0.190002V20.22H12.17Z" fill="#0000E9"/>
<path d="M12.17 31.71V39.14H10.98V33.11H6.78V38.29H5.59V33.11H1.37V39.14H0.190002V31.71H12.17Z" fill="#0000E9"/>
<path d="M0.0100098 168.69C0.0100098 165.19 2.68001 163.11 6.16001 163.11C9.66001 163.11 12.33 165.18 12.33 168.69C12.33 172.23 9.66001 174.3 6.16001 174.3C2.68001 174.29 0.0100098 172.22 0.0100098 168.69ZM11.15 168.69C11.15 165.87 9.04001 164.51 6.17001 164.51C3.31001 164.51 1.21001 165.87 1.21001 168.69C1.21001 171.53 3.32001 172.9 6.17001 172.9C9.04001 172.9 11.15 171.52 11.15 168.69Z" fill="#0000E9"/>
<path d="M1.36999 151.52V155.67H12.16V157.05H1.36999V161.23H0.179993V151.52H1.36999Z" fill="#0000E9"/>
<path d="M0.179993 138.32H12.16V139.7H6.83999V146.77H12.16V148.16H0.179993V146.77H5.64999V139.7H0.179993V138.32Z" fill="#0000E9"/>
<path d="M0.179993 134.33V126.9H1.36999V132.93H5.56999V127.75H6.75999V132.93H10.98V126.9H12.17V134.33H0.179993Z" fill="#0000E9"/>
<path d="M0.179993 123.23V119.25C0.179993 116.39 0.839993 114.58 3.52999 114.58C5.32999 114.58 6.12999 115.52 6.34999 116.81H6.75999V115.38C6.75999 114.7 7.02999 114.43 7.65999 114.43H12.16V115.82H7.34999V121.84H12.16V123.23H0.179993ZM6.15999 119.25C6.15999 117.21 5.95999 115.97 3.75999 115.97C1.54999 115.97 1.35999 117.21 1.35999 119.25V121.83H6.14999V119.25H6.15999Z" fill="#0000E9"/>
<path d="M0.179993 110.27L11.77 107.82V107.41L0.179993 104.98V102.11L11.77 99.68V99.27L0.179993 96.82V95.49L12.16 98.04V100.88L0.569993 103.34V103.73L12.16 106.18V109.02L0.179993 111.59V110.27Z" fill="#0000E9"/>
<path d="M0.559998 87.92H1.66L1.68 93.41H0.559998V87.92ZM10.98 93.14V90.74H4.76L4.91 92.51H3.72L3.55 90.59C3.48 89.79 3.92 89.49 4.71 89.49H10.98V87.08H12.17V93.15H10.98V93.14Z" fill="#0000E9"/>
<path d="M12.33 78.65C12.33 82.83 10.48 84.07 7.67 84.07V82.68C10.51 82.68 11.14 81.17 11.14 78.65C11.14 76.61 10.65 75.44 9.2 75.44C7.38 75.44 7.01 77.55 6.45 79.45C5.74 81.81 5.09 83.53 2.96 83.53C1.13 83.53 0 82.24 0 79.28C0 75.74 2.16 74.54 4.11 74.54V75.93C2.07 75.93 1.19 77.44 1.19 79.28C1.19 80.93 1.6 82.14 2.92 82.14C4.18 82.14 4.64 81.09 5.25 79.11C5.98 76.76 6.63 74.04 9.13 74.04C10.92 74.05 12.33 75.12 12.33 78.65Z" fill="#0000E9"/>
<path d="M0.179993 70.41V62.98H1.36999V69.01H5.56999V63.83H6.75999V69.01H10.98V62.98H12.17V70.41H0.179993Z" fill="#0000E9"/>
<path d="M6.19 42.78V59.2" stroke="#0000E9" stroke-width="1.1339" stroke-miterlimit="10"/>
</svg>
