<svg width="31" height="43" viewBox="0 0 31 43" fill="none" xmlns="http://www.w3.org/2000/svg">
<path d="M28.3467 23.9067C26.9961 22.409 25.6774 21.488 23.144 20.1985C27.4915 18.3565 29.3776 15.3291 29.3696 11.1084C29.3696 8.91395 28.8342 6.9838 27.7872 5.31794C26.7403 3.65208 25.2219 2.34662 23.232 1.40156C21.242 0.45651 18.0293 0 12.8028 0L0 0.0400447V43L16.2232 42.9519C19.4998 42.9439 22.217 42.3913 24.3908 41.2941C26.5645 40.1969 28.2108 38.7873 29.3296 37.0654C30.4485 35.3435 31.0079 33.3813 30.9999 31.1868C30.9919 28.4237 30.1608 25.9329 28.3387 23.9227L28.3467 23.9067ZM16.423 32.5163H10.8368V10.4597H16.423V32.5083V32.5163Z" fill="white"/>
</svg>
