<svg width="31" height="39" viewBox="0 0 31 39" fill="none" xmlns="http://www.w3.org/2000/svg">
<path d="M28.3467 21.6606C26.9961 20.3592 25.6774 19.5589 23.144 18.4385C27.4915 16.8379 29.3776 14.2074 29.3696 10.54C29.3696 8.63316 28.8342 6.95602 27.7872 5.50853C26.7403 4.06104 25.2219 2.92671 23.232 2.10554C21.242 1.28436 18.0293 0.887695 12.8028 0.887695L0 0.922491V38.2511L16.2232 38.2093C19.4998 38.2023 22.217 37.7222 24.3908 36.7688C26.5645 35.8154 28.2108 34.5906 29.3296 33.0944C30.4485 31.5982 31.0079 29.8932 30.9999 27.9864C30.9919 25.5855 30.1608 23.4212 28.3387 21.6745L28.3467 21.6606ZM16.423 29.1416H10.8368V9.97627H16.423V29.1346V29.1416Z" fill="#0000E9"/>
</svg>
