<svg width="48" height="48" viewBox="0 0 48 48" fill="none" xmlns="http://www.w3.org/2000/svg">
<g clip-path="url(#clip0_2621_22)">
<rect width="48" height="48" fill="white"/>
<rect x="0.75" y="0.75" width="46.5" height="46.5" fill="#DFFF00" stroke="#0000E9" stroke-width="1.5"/>
<path d="M16.8783 9L33.7283 9V11.0828L17.1357 11.0828L17.3931 20.1184L15.5915 20.1184L15.3341 10.5434C15.3038 9.56941 15.8943 9 16.8783 9Z" fill="#0000E9"/>
<path d="M15 32.0279C15 26.7834 19.0422 23.6667 24.3106 23.6667C29.6094 23.6667 33.6515 26.7684 33.6515 32.0279C33.6515 37.3324 29.6094 40.4342 24.3106 40.4342C19.0422 40.4192 15 37.3174 15 32.0279ZM31.8651 32.0279C31.8651 27.8024 28.6707 25.7645 24.3258 25.7645C19.9959 25.7645 16.8167 27.8024 16.8167 32.0279C16.8167 36.2835 20.0111 38.3364 24.3258 38.3364C28.6707 38.3364 31.8651 36.2685 31.8651 32.0279Z" fill="#0000E9"/>
</g>
<defs>
<clipPath id="clip0_2621_22">
<rect width="48" height="48" fill="white"/>
</clipPath>
</defs>
</svg>
