<svg width="163" height="54" viewBox="0 0 163 54" fill="none" xmlns="http://www.w3.org/2000/svg">
<g clip-path="url(#clip0_2486_21)">
<path d="M0.820312 3.37H6.61031V4.43H2.02031V7.88H6.32031V8.95H2.02031V13.46H0.820312V3.37Z" fill="#1842F5"/>
<path d="M13.0104 6.25H15.0704V11.17C15.0704 11.64 15.1004 12.09 15.1604 12.53H16.1304V13.47H14.2004L14.1604 12.24H14.1004C13.8504 12.65 13.5204 12.99 13.1104 13.25C12.7004 13.51 12.2004 13.64 11.6104 13.64C11.1704 13.64 10.7904 13.59 10.4804 13.49C10.1704 13.39 9.91039 13.21 9.71039 12.96C9.51039 12.71 9.36039 12.38 9.26039 11.96C9.16039 11.54 9.12039 11.02 9.12039 10.4V7.23H8.15039V6.26H10.2604V10.17C10.2604 10.56 10.2804 10.92 10.3104 11.23C10.3404 11.54 10.4104 11.81 10.5204 12.02C10.6304 12.24 10.7804 12.4 10.9904 12.51C11.2004 12.62 11.4704 12.68 11.8104 12.68C12.3104 12.68 12.7404 12.52 13.1104 12.19C13.4804 11.86 13.7604 11.45 13.9504 10.96V7.22H13.0304V6.25H13.0104Z" fill="#1842F5"/>
<path d="M16.8896 6.25H18.6096V4.82L19.7496 4.5V6.25H23.5996V7.22H19.7496V10.62C19.7496 11.32 19.9196 11.84 20.2596 12.18C20.5996 12.52 21.0896 12.68 21.7196 12.68C22.1496 12.68 22.5296 12.6 22.8496 12.43C23.1696 12.27 23.4596 12.09 23.7196 11.9L24.0896 12.75C23.7496 13.02 23.3496 13.24 22.8896 13.4C22.4196 13.56 21.9496 13.65 21.4596 13.65C21.0796 13.65 20.7096 13.6 20.3696 13.48C20.0296 13.37 19.7296 13.2 19.4696 12.97C19.2096 12.74 18.9996 12.44 18.8496 12.08C18.6996 11.72 18.6196 11.29 18.6196 10.79V7.21H16.8996V6.24L16.8896 6.25Z" fill="#1842F5"/>
<path d="M30.3102 6.25H32.3702V11.17C32.3702 11.64 32.4002 12.09 32.4602 12.53H33.4302V13.47H31.5002L31.4602 12.24H31.4002C31.1502 12.65 30.8202 12.99 30.4102 13.25C30.0002 13.51 29.5002 13.64 28.9102 13.64C28.4702 13.64 28.0902 13.59 27.7802 13.49C27.4702 13.39 27.2102 13.21 27.0102 12.96C26.8102 12.71 26.6602 12.38 26.5602 11.96C26.4602 11.54 26.4202 11.02 26.4202 10.4V7.23H25.4502V6.26H27.5602V10.17C27.5602 10.56 27.5802 10.92 27.6102 11.23C27.6402 11.54 27.7102 11.81 27.8202 12.02C27.9302 12.24 28.0802 12.4 28.2902 12.51C28.5002 12.62 28.7702 12.68 29.1102 12.68C29.6102 12.68 30.0402 12.52 30.4102 12.19C30.7802 11.86 31.0602 11.45 31.2502 10.96V7.22H30.3302V6.25H30.3102Z" fill="#1842F5"/>
<path d="M34.7002 13.46V12.49H36.6502V7.20997H34.7002V6.23997H37.4002L37.6302 7.17997H37.7002C38.0302 6.87997 38.3902 6.62997 38.8002 6.40997C39.2002 6.19997 39.6802 6.08997 40.2402 6.08997C40.5702 6.08997 40.8302 6.14997 41.0302 6.27997C41.2302 6.40997 41.3802 6.58997 41.4902 6.82997C41.6002 7.06997 41.6802 7.35997 41.7102 7.69997C41.7502 8.03997 41.7702 8.42997 41.7702 8.85997H40.7602C40.7602 8.25997 40.7002 7.81997 40.5802 7.52997C40.4602 7.23997 40.2402 7.09997 39.9202 7.09997C39.6202 7.09997 39.3502 7.13997 39.1102 7.22997C38.8702 7.31997 38.6602 7.41997 38.4802 7.54997C38.3002 7.67997 38.1502 7.79997 38.0302 7.91997C37.9102 8.03997 37.8102 8.14997 37.7602 8.23997V12.48H40.5302V13.45H34.7002V13.46Z" fill="#1842F5"/>
<path d="M49.8996 8.04996C49.7396 7.53996 49.4996 7.12996 49.1996 6.83996C48.8996 6.54996 48.5496 6.34996 48.1496 6.23996C47.7596 6.12996 47.3596 6.07996 46.9496 6.07996C46.3896 6.07996 45.8896 6.15996 45.4396 6.32996C44.9896 6.49996 44.5996 6.73996 44.2896 7.05996C43.9696 7.37996 43.7296 7.76996 43.5596 8.23996C43.3896 8.70996 43.3096 9.24996 43.3096 9.84996C43.3096 10.45 43.3896 10.95 43.5396 11.41C43.6896 11.87 43.9196 12.27 44.2196 12.6C44.5196 12.93 44.8896 13.19 45.3296 13.36C45.7696 13.54 46.2796 13.63 46.8596 13.63C47.1696 13.63 47.4696 13.6 47.7696 13.55C48.0696 13.5 48.3596 13.42 48.6396 13.33C48.9196 13.23 49.1796 13.12 49.4096 12.98C49.6496 12.84 49.8496 12.7 50.0196 12.55L49.5696 11.73C49.4696 11.82 49.3396 11.91 49.1596 12.02C48.9796 12.13 48.7796 12.22 48.5496 12.31C48.3196 12.4 48.0796 12.47 47.8196 12.53C47.5696 12.59 47.3096 12.62 47.0496 12.62C46.2696 12.62 45.6496 12.41 45.1896 11.98C44.7296 11.55 44.4896 10.91 44.4896 10.04H50.0596C50.1096 9.21996 50.0596 8.55996 49.8896 8.03996L49.8996 8.04996ZM44.5396 9.02996C44.5796 8.65996 44.6696 8.33996 44.8096 8.08996C44.9496 7.82996 45.1296 7.62996 45.3396 7.46996C45.5596 7.30996 45.7996 7.19996 46.0896 7.12996C46.3696 7.05996 46.6696 7.02996 46.9896 7.02996C47.5796 7.02996 48.0496 7.20996 48.4096 7.55996C48.7696 7.90996 48.9696 8.39996 49.0196 9.03996H44.5496L44.5396 9.02996Z" fill="#1842F5"/>
<path d="M66.2903 8.83H61.7603V13.46H60.5703V3.37H61.7603V7.77H66.2903V3.37H67.4903V13.46H66.2903V8.83Z" fill="#1842F5"/>
<path d="M73.57 6.25H75.63V11.17C75.63 11.64 75.66 12.09 75.72 12.53H76.69V13.47H74.76L74.72 12.24H74.66C74.41 12.65 74.08 12.99 73.67 13.25C73.26 13.51 72.76 13.64 72.17 13.64C71.73 13.64 71.35 13.59 71.04 13.49C70.73 13.39 70.47 13.21 70.27 12.96C70.07 12.71 69.92 12.38 69.82 11.96C69.72 11.54 69.68 11.02 69.68 10.4V7.23H68.71V6.26H70.82V10.17C70.82 10.56 70.84 10.92 70.87 11.23C70.9 11.54 70.97 11.81 71.08 12.02C71.19 12.24 71.34 12.4 71.55 12.51C71.76 12.62 72.03 12.68 72.37 12.68C72.87 12.68 73.3 12.52 73.67 12.19C74.04 11.86 74.32 11.45 74.51 10.96V7.22H73.59V6.25H73.57Z" fill="#1842F5"/>
<path d="M80.7798 13.4599V8.65995C80.7798 8.45995 80.7798 8.25995 80.7598 8.07995C80.7398 7.89995 80.7099 7.71995 80.6599 7.56995C80.6099 7.41995 80.5298 7.29995 80.4298 7.21995C80.3298 7.12995 80.1998 7.08995 80.0298 7.08995C79.6998 7.08995 79.4298 7.21995 79.1998 7.48995C78.9698 7.75995 78.7998 8.09995 78.6898 8.49995V13.4599H77.5898V6.24995H78.3398L78.5598 7.12995H78.6199C78.7199 6.97995 78.8098 6.84995 78.8998 6.71995C78.9898 6.58995 79.0998 6.47995 79.2198 6.37995C79.3398 6.27995 79.4798 6.20995 79.6498 6.15995C79.8198 6.10995 80.0198 6.07995 80.2698 6.07995C80.4098 6.07995 80.5598 6.09995 80.7198 6.13995C80.8698 6.17995 81.0198 6.24995 81.1498 6.33995C81.2798 6.42995 81.3898 6.54995 81.4898 6.70995C81.5898 6.86995 81.6498 7.04995 81.6798 7.26995C81.8998 6.89995 82.1498 6.59995 82.4198 6.38995C82.6898 6.17995 83.0699 6.06995 83.5499 6.06995C83.8699 6.06995 84.1198 6.11995 84.3198 6.22995C84.5198 6.33995 84.6698 6.48995 84.7798 6.67995C84.8898 6.86995 84.9698 7.10995 85.0098 7.38995C85.0498 7.65995 85.0698 7.96995 85.0698 8.30995V13.4599H83.9698V8.55995C83.9698 8.35995 83.9699 8.16995 83.9398 7.98995C83.9198 7.80995 83.8898 7.65995 83.8298 7.51995C83.7698 7.37995 83.6998 7.27995 83.6098 7.19995C83.5198 7.11995 83.3998 7.07995 83.2398 7.07995C82.8998 7.07995 82.6198 7.20995 82.3898 7.47995C82.1598 7.74995 81.9899 8.12995 81.8699 8.62995V13.4499H80.7698L80.7798 13.4599Z" fill="#1842F5"/>
<path d="M92.5505 12.52C92.4905 12.09 92.4605 11.63 92.4605 11.15C92.4605 10.74 92.4805 10.32 92.5005 9.91C92.5205 9.5 92.5305 9.11 92.5305 8.74C92.5305 8.42 92.5005 8.11 92.4405 7.8C92.3805 7.49001 92.2605 7.21 92.0805 6.96C91.9005 6.71 91.6605 6.52 91.3405 6.36C91.0305 6.21 90.6305 6.13 90.1405 6.13C89.6505 6.13 89.1305 6.18 88.6105 6.29C88.0905 6.4 87.6205 6.57 87.2105 6.81L87.5705 7.65C87.8805 7.53 88.2305 7.4 88.6305 7.28C89.0305 7.16 89.4405 7.1 89.8705 7.1C90.1905 7.1 90.4605 7.14 90.6705 7.21C90.8905 7.28 91.0605 7.4 91.1805 7.58C91.3005 7.75 91.3805 7.99 91.4105 8.28C91.4405 8.57 91.4405 8.94 91.3905 9.38C90.6805 9.27 90.0305 9.24001 89.4605 9.26C88.8905 9.29 88.4005 9.39001 87.9905 9.56001C87.5805 9.73001 87.2705 9.98001 87.0605 10.31C86.8405 10.64 86.7305 11.05 86.7305 11.53C86.7305 12.17 86.9405 12.67 87.3505 13.03C87.7605 13.39 88.3305 13.58 89.0405 13.58C89.4105 13.58 89.7205 13.53 89.9905 13.44C90.2605 13.34 90.4905 13.23 90.6805 13.1C90.8705 12.97 91.0205 12.84 91.1405 12.7C91.2605 12.57 91.3405 12.45 91.4005 12.37H91.4705L91.6005 13.45H93.5005V12.51H92.5305L92.5505 12.52ZM91.4005 11.27C91.3405 11.41 91.2605 11.57 91.1405 11.72C91.0205 11.88 90.8805 12.02 90.7105 12.16C90.5405 12.29 90.3405 12.41 90.1005 12.49C89.8705 12.58 89.6205 12.62 89.3505 12.62C88.8405 12.62 88.4805 12.5 88.2605 12.27C88.0405 12.03 87.9405 11.76 87.9405 11.44C87.9405 11.12 88.0305 10.88 88.2005 10.69C88.3705 10.5 88.6105 10.36 88.9205 10.26C89.2305 10.17 89.5905 10.12 90.0205 10.12C90.4505 10.12 90.9105 10.16 91.4005 10.25V11.26V11.27Z" fill="#1842F5"/>
<path d="M95.6503 8.77997C95.6503 8.68997 95.6503 8.57997 95.6503 8.43997C95.6503 8.29997 95.6403 8.15997 95.6303 8.00997C95.6303 7.85997 95.6103 7.70997 95.5903 7.56997C95.5803 7.42997 95.5603 7.29997 95.5403 7.19997H94.5703V6.25997H96.5003L96.6303 7.42997H96.7003C96.8003 7.26997 96.9203 7.10997 97.0803 6.94997C97.2403 6.78997 97.4203 6.64997 97.6403 6.51997C97.8603 6.38997 98.0903 6.28997 98.3503 6.20997C98.6103 6.12997 98.8803 6.08997 99.1703 6.08997C99.6103 6.08997 100 6.13997 100.35 6.22997C100.69 6.32997 100.97 6.49997 101.2 6.73997C101.43 6.98997 101.6 7.31997 101.71 7.72997C101.82 8.13997 101.88 8.67997 101.88 9.31997V13.46H100.74V9.54997C100.74 8.74997 100.61 8.14997 100.35 7.74997C100.09 7.34997 99.6203 7.14997 98.9403 7.14997C98.6903 7.14997 98.4503 7.19997 98.2103 7.29997C97.9703 7.39997 97.7603 7.52997 97.5703 7.68997C97.3803 7.84997 97.2103 8.03997 97.0703 8.25997C96.9303 8.47997 96.8203 8.69997 96.7503 8.93997V13.46H95.6403V8.76997L95.6503 8.77997Z" fill="#1842F5"/>
<path d="M109.26 11.52C109.26 11.21 109.14 10.97 108.9 10.81C108.66 10.64 108.36 10.51 108.01 10.41C107.66 10.31 107.27 10.22 106.85 10.13C106.43 10.04 106.05 9.92998 105.69 9.77998C105.33 9.62998 105.04 9.43998 104.8 9.19998C104.56 8.94998 104.44 8.60998 104.44 8.16998C104.44 7.80998 104.52 7.48998 104.68 7.22998C104.84 6.96998 105.05 6.75998 105.31 6.58998C105.57 6.41998 105.87 6.29998 106.22 6.21998C106.57 6.13998 106.93 6.09998 107.3 6.09998C107.97 6.09998 108.55 6.17998 109.04 6.34998C109.53 6.51998 109.91 6.68998 110.2 6.87998L109.74 7.78998C109.42 7.61998 109.08 7.44998 108.71 7.28998C108.34 7.12998 107.88 7.04998 107.32 7.04998C107.11 7.04998 106.9 7.06998 106.7 7.10998C106.5 7.14998 106.31 7.21998 106.14 7.29998C105.97 7.38998 105.84 7.49998 105.74 7.63998C105.64 7.77998 105.59 7.94998 105.59 8.14998C105.59 8.39998 105.71 8.58998 105.95 8.72998C106.19 8.85998 106.49 8.97998 106.84 9.06998C107.19 9.15998 107.58 9.24998 108 9.32998C108.42 9.40998 108.8 9.52998 109.16 9.67998C109.51 9.82998 109.81 10.04 110.05 10.3C110.29 10.56 110.41 10.91 110.41 11.35C110.41 12.01 110.15 12.56 109.62 12.99C109.09 13.42 108.31 13.64 107.26 13.64C106.94 13.64 106.63 13.61 106.32 13.55C106.01 13.49 105.72 13.42 105.45 13.32C105.18 13.22 104.94 13.12 104.71 13C104.48 12.88 104.31 12.76 104.16 12.63L104.74 11.69C104.86 11.8 105.01 11.92 105.2 12.04C105.39 12.16 105.6 12.27 105.83 12.36C106.06 12.46 106.31 12.53 106.57 12.59C106.83 12.65 107.1 12.68 107.37 12.68C107.64 12.68 107.87 12.66 108.1 12.61C108.33 12.57 108.52 12.5 108.7 12.41C108.88 12.32 109.01 12.2 109.11 12.05C109.21 11.9 109.26 11.72 109.26 11.51V11.52Z" fill="#1842F5"/>
<path d="M6.76031 27.93C6.64031 27.64 6.47031 27.4 6.27031 27.19C6.07031 26.99 5.84031 26.83 5.57031 26.71C5.31031 26.59 5.03031 26.51 4.74031 26.46V26.4C5.07031 26.31 5.35031 26.19 5.59031 26.03C5.83031 25.87 6.03031 25.68 6.18031 25.46C6.33031 25.24 6.45031 25.01 6.52031 24.76C6.60031 24.51 6.64031 24.27 6.64031 24.02C6.64031 23.52 6.54031 23.11 6.33031 22.8C6.12031 22.48 5.86031 22.23 5.55031 22.06C5.23031 21.88 4.88031 21.76 4.49031 21.7C4.10031 21.64 3.72031 21.61 3.35031 21.61C2.79031 21.61 2.28031 21.63 1.81031 21.67C1.34031 21.71 0.930313 21.76 0.570312 21.81V31.75C0.750313 31.8 0.960313 31.83 1.20031 31.86C1.44031 31.88 1.68031 31.9 1.92031 31.92C2.16031 31.93 2.39031 31.94 2.61031 31.94H3.19031C3.66031 31.94 4.12031 31.88 4.57031 31.77C5.02031 31.65 5.42031 31.48 5.77031 31.24C6.12031 31 6.40031 30.69 6.62031 30.31C6.84031 29.93 6.94031 29.48 6.94031 28.96C6.94031 28.57 6.88031 28.22 6.75031 27.94L6.76031 27.93ZM1.77031 22.73C1.90031 22.7 2.10031 22.68 2.37031 22.67C2.63031 22.66 2.93031 22.65 3.24031 22.65C3.51031 22.65 3.77031 22.67 4.03031 22.72C4.29031 22.77 4.52031 22.85 4.72031 22.98C4.92031 23.11 5.08031 23.27 5.20031 23.49C5.32031 23.7 5.38031 23.97 5.38031 24.28C5.38031 24.51 5.33031 24.72 5.24031 24.91C5.15031 25.1 5.02031 25.28 4.87031 25.43C4.71031 25.58 4.53031 25.72 4.33031 25.83C4.13031 25.94 3.91031 26.03 3.68031 26.11C3.53031 26.13 3.33031 26.14 3.10031 26.15C2.87031 26.15 2.67031 26.16 2.51031 26.16H1.76031V22.73H1.77031ZM5.50031 29.86C5.37031 30.09 5.19031 30.28 4.97031 30.44C4.75031 30.59 4.49031 30.71 4.21031 30.79C3.92031 30.87 3.62031 30.91 3.32031 30.91C3.20031 30.91 3.07031 30.91 2.92031 30.91C2.77031 30.91 2.62031 30.9 2.47031 30.89C2.33031 30.89 2.19031 30.87 2.07031 30.86C1.95031 30.85 1.85031 30.84 1.78031 30.82V27.2H3.03031C3.35031 27.2 3.66031 27.22 3.98031 27.27C4.30031 27.32 4.58031 27.41 4.84031 27.54C5.10031 27.67 5.30031 27.86 5.46031 28.1C5.62031 28.34 5.70031 28.66 5.70031 29.05C5.70031 29.37 5.64031 29.64 5.51031 29.87L5.50031 29.86Z" fill="#1842F5"/>
<path d="M14.5602 30.3801C14.3802 30.4901 14.1802 30.5801 13.9502 30.6701C13.7202 30.7601 13.4802 30.8301 13.2202 30.8901C12.9702 30.9501 12.7102 30.9801 12.4502 30.9801C11.6702 30.9801 11.0502 30.7701 10.5902 30.3401C10.1302 29.9101 9.8902 29.2701 9.8902 28.4001H15.4602C15.5102 27.5801 15.4602 26.9201 15.2902 26.4001C15.1302 25.8901 14.8902 25.4801 14.5902 25.1901C14.2902 24.9001 13.9402 24.7001 13.5402 24.5901C13.1502 24.4801 12.7502 24.4301 12.3402 24.4301C11.7802 24.4301 11.2802 24.5101 10.8302 24.6801C10.3802 24.8501 9.9902 25.0901 9.6802 25.4101C9.3602 25.7301 9.1202 26.1201 8.9502 26.5901C8.7802 27.0601 8.7002 27.6001 8.7002 28.2001C8.7002 28.8001 8.7802 29.3001 8.9302 29.7601C9.0802 30.2201 9.3102 30.6201 9.6102 30.9501C9.9102 31.2801 10.2802 31.5401 10.7202 31.7201C11.1602 31.9001 11.6702 31.9901 12.2502 31.9901C12.5602 31.9901 12.8602 31.9601 13.1602 31.9101C13.4602 31.8601 13.7502 31.7801 14.0302 31.6901C14.3102 31.5901 14.5702 31.4801 14.8002 31.3401C15.0402 31.2101 15.2402 31.0601 15.4102 30.9101L14.9602 30.0901C14.8602 30.1801 14.7302 30.2701 14.5502 30.3801H14.5602ZM10.2002 26.4501C10.3402 26.1901 10.5202 25.9901 10.7302 25.8301C10.9502 25.6701 11.1902 25.5601 11.4802 25.4901C11.7602 25.4201 12.0602 25.3901 12.3802 25.3901C12.9702 25.3901 13.4402 25.5701 13.8002 25.9201C14.1602 26.2701 14.3602 26.7601 14.4102 27.4001H9.9402C9.9802 27.0301 10.0702 26.7101 10.2102 26.4601L10.2002 26.4501Z" fill="#1842F5"/>
<path d="M17.3896 31.82V30.85H19.3396V25.57H17.3896V24.61H20.0896L20.3196 25.55H20.3896C20.7196 25.25 21.0796 25 21.4896 24.79C21.8896 24.58 22.3696 24.47 22.9296 24.47C23.2596 24.47 23.5196 24.53 23.7196 24.66C23.9196 24.79 24.0696 24.97 24.1796 25.21C24.2896 25.45 24.3696 25.74 24.3996 26.08C24.4396 26.42 24.4596 26.81 24.4596 27.24H23.4496C23.4496 26.64 23.3896 26.2 23.2696 25.91C23.1496 25.62 22.9296 25.48 22.6096 25.48C22.3096 25.48 22.0396 25.52 21.7996 25.61C21.5596 25.7 21.3496 25.8 21.1696 25.93C20.9896 26.05 20.8396 26.18 20.7196 26.3C20.5996 26.42 20.4996 26.53 20.4496 26.62V30.86H23.2196V31.83H17.3896V31.82Z" fill="#1842F5"/>
<path d="M31.4998 24.62C31.0798 24.54 30.5798 24.5 29.9798 24.5C28.6898 24.5 27.7198 24.82 27.0698 25.44C26.4198 26.07 26.0898 27 26.0898 28.23C26.0898 29.46 26.3498 30.47 26.8598 31.08C27.3698 31.69 28.1798 32 29.2698 32C29.8198 32 30.2598 31.91 30.6098 31.74C30.9598 31.57 31.2398 31.32 31.4598 31.01H31.5198V31.82C31.5198 32.19 31.4798 32.51 31.4098 32.77C31.3298 33.03 31.2098 33.24 31.0398 33.4C30.8698 33.56 30.6398 33.68 30.3598 33.76C30.0798 33.84 29.7298 33.88 29.2998 33.88C29.0998 33.88 28.8898 33.86 28.6898 33.82C28.4798 33.78 28.2898 33.73 28.1098 33.67C27.9298 33.61 27.7698 33.54 27.6298 33.47C27.4898 33.4 27.3798 33.32 27.2898 33.25L26.7398 34.27C27.0498 34.45 27.4098 34.6 27.8398 34.72C28.2598 34.84 28.7598 34.89 29.3298 34.89C29.7998 34.89 30.2398 34.83 30.6398 34.72C31.0398 34.61 31.3998 34.44 31.6998 34.22C31.9998 34 32.2398 33.72 32.4098 33.38C32.5798 33.04 32.6698 32.64 32.6698 32.19V24.94C32.3198 24.81 31.9398 24.71 31.5198 24.63L31.4998 24.62ZM31.5098 29.18C31.3798 29.8 31.1398 30.27 30.8098 30.57C30.4798 30.87 30.0198 31.02 29.4398 31.02C29.0398 31.02 28.6998 30.95 28.4298 30.81C28.1598 30.67 27.9398 30.48 27.7698 30.23C27.5998 29.98 27.4798 29.68 27.4098 29.34C27.3298 29 27.2998 28.62 27.2998 28.21C27.2998 27.28 27.5198 26.59 27.9598 26.13C28.3998 25.68 28.9998 25.45 29.7698 25.45C30.5398 25.45 31.1098 25.55 31.5298 25.75V29.17L31.5098 29.18Z" fill="#1842F5"/>
<path d="M40.1502 24.62C39.7302 24.54 39.2302 24.5 38.6302 24.5C37.3402 24.5 36.3702 24.82 35.7202 25.44C35.0702 26.07 34.7402 27 34.7402 28.23C34.7402 29.46 35.0002 30.47 35.5102 31.08C36.0202 31.69 36.8302 32 37.9202 32C38.4702 32 38.9102 31.91 39.2602 31.74C39.6102 31.57 39.8902 31.32 40.1102 31.01H40.1702V31.82C40.1702 32.19 40.1302 32.51 40.0602 32.77C39.9802 33.03 39.8602 33.24 39.6902 33.4C39.5202 33.56 39.2902 33.68 39.0102 33.76C38.7302 33.84 38.3802 33.88 37.9502 33.88C37.7502 33.88 37.5402 33.86 37.3402 33.82C37.1302 33.78 36.9402 33.73 36.7602 33.67C36.5802 33.61 36.4202 33.54 36.2802 33.47C36.1402 33.4 36.0302 33.32 35.9402 33.25L35.3902 34.27C35.7002 34.45 36.0602 34.6 36.4902 34.72C36.9102 34.84 37.4102 34.89 37.9802 34.89C38.4502 34.89 38.8902 34.83 39.2902 34.72C39.6902 34.61 40.0502 34.44 40.3502 34.22C40.6502 34 40.8902 33.72 41.0602 33.38C41.2302 33.04 41.3202 32.64 41.3202 32.19V24.94C40.9702 24.81 40.5902 24.71 40.1702 24.63L40.1502 24.62ZM40.1602 29.18C40.0302 29.8 39.7902 30.27 39.4602 30.57C39.1302 30.87 38.6702 31.02 38.0902 31.02C37.6902 31.02 37.3502 30.95 37.0802 30.81C36.8102 30.67 36.5902 30.48 36.4202 30.23C36.2502 29.98 36.1302 29.68 36.0602 29.34C35.9802 29 35.9502 28.62 35.9502 28.21C35.9502 27.28 36.1702 26.59 36.6102 26.13C37.0502 25.68 37.6502 25.45 38.4202 25.45C39.1902 25.45 39.7602 25.55 40.1802 25.75V29.17L40.1602 29.18Z" fill="#1842F5"/>
<path d="M43.3496 31.82V30.85H45.2996V25.57H43.3496V24.61H46.0496L46.2796 25.55H46.3496C46.6796 25.25 47.0396 25 47.4496 24.79C47.8496 24.58 48.3296 24.47 48.8896 24.47C49.2196 24.47 49.4796 24.53 49.6796 24.66C49.8796 24.79 50.0296 24.97 50.1396 25.21C50.2496 25.45 50.3296 25.74 50.3596 26.08C50.3996 26.42 50.4196 26.81 50.4196 27.24H49.4096C49.4096 26.64 49.3496 26.2 49.2296 25.91C49.1096 25.62 48.8896 25.48 48.5696 25.48C48.2696 25.48 47.9996 25.52 47.7596 25.61C47.5196 25.7 47.3096 25.8 47.1296 25.93C46.9496 26.05 46.7996 26.18 46.6796 26.3C46.5596 26.42 46.4596 26.53 46.4096 26.62V30.86H49.1796V31.83H43.3496V31.82Z" fill="#1842F5"/>
<path d="M56.2702 24.61H58.3302V29.53C58.3302 30 58.3602 30.45 58.4202 30.89H59.3902V31.83H57.4602L57.4202 30.6H57.3602C57.1102 31.01 56.7802 31.35 56.3702 31.61C55.9602 31.87 55.4602 32 54.8702 32C54.4302 32 54.0502 31.95 53.7402 31.85C53.4302 31.75 53.1702 31.57 52.9702 31.32C52.7702 31.07 52.6202 30.74 52.5202 30.32C52.4202 29.9 52.3802 29.38 52.3802 28.76V25.59H51.4102V24.63H53.5202V28.54C53.5202 28.93 53.5402 29.29 53.5702 29.6C53.6002 29.91 53.6702 30.18 53.7802 30.39C53.8902 30.61 54.0402 30.77 54.2502 30.88C54.4602 30.99 54.7302 31.05 55.0702 31.05C55.5702 31.05 56.0002 30.89 56.3702 30.56C56.7402 30.23 57.0202 29.82 57.2102 29.33V25.59H56.2902V24.63L56.2702 24.61Z" fill="#1842F5"/>
<path d="M66.4704 30.3801C66.2904 30.4901 66.0904 30.5801 65.8604 30.6701C65.6304 30.7601 65.3903 30.8301 65.1303 30.8901C64.8803 30.9501 64.6204 30.9801 64.3604 30.9801C63.5804 30.9801 62.9604 30.7701 62.5004 30.3401C62.0404 29.9101 61.8004 29.2701 61.8004 28.4001H67.3704C67.4204 27.5801 67.3703 26.9201 67.2003 26.4001C67.0403 25.8901 66.8004 25.4801 66.5004 25.1901C66.2004 24.9001 65.8503 24.7001 65.4503 24.5901C65.0603 24.4801 64.6604 24.4301 64.2504 24.4301C63.6904 24.4301 63.1904 24.5101 62.7404 24.6801C62.2904 24.8501 61.9004 25.0901 61.5904 25.4101C61.2704 25.7301 61.0304 26.1201 60.8604 26.5901C60.6904 27.0601 60.6104 27.6001 60.6104 28.2001C60.6104 28.8001 60.6904 29.3001 60.8404 29.7601C60.9904 30.2201 61.2204 30.6201 61.5204 30.9501C61.8204 31.2801 62.1904 31.5401 62.6304 31.7201C63.0704 31.9001 63.5804 31.9901 64.1604 31.9901C64.4704 31.9901 64.7704 31.9601 65.0704 31.9101C65.3704 31.8601 65.6604 31.7801 65.9404 31.6901C66.2204 31.5901 66.4804 31.4801 66.7104 31.3401C66.9503 31.2101 67.1504 31.0601 67.3204 30.9101L66.8704 30.0901C66.7704 30.1801 66.6403 30.2701 66.4604 30.3801H66.4704ZM62.1203 26.4501C62.2603 26.1901 62.4404 25.9901 62.6504 25.8301C62.8604 25.6701 63.1104 25.5601 63.4004 25.4901C63.6804 25.4201 63.9804 25.3901 64.3004 25.3901C64.8904 25.3901 65.3604 25.5701 65.7204 25.9201C66.0804 26.2701 66.2804 26.7601 66.3304 27.4001H61.8604C61.9004 27.0301 61.9904 26.7101 62.1304 26.4601L62.1203 26.4501Z" fill="#1842F5"/>
<path d="M69.6904 27.1299C69.6904 27.0399 69.6904 26.9299 69.6904 26.7899C69.6904 26.6499 69.6803 26.5099 69.6703 26.3599C69.6703 26.2099 69.6503 26.0599 69.6303 25.9199C69.6203 25.7799 69.6004 25.6499 69.5804 25.5499H68.6104V24.6099H70.5404L70.6703 25.7799H70.7403C70.8403 25.6199 70.9604 25.4599 71.1204 25.2999C71.2804 25.1399 71.4604 24.9999 71.6804 24.8699C71.8904 24.7399 72.1304 24.6399 72.3904 24.5599C72.6504 24.4799 72.9204 24.4399 73.2104 24.4399C73.6504 24.4399 74.0404 24.4899 74.3904 24.5799C74.7304 24.6799 75.0103 24.8499 75.2403 25.0899C75.4703 25.3399 75.6404 25.6699 75.7504 26.0799C75.8704 26.4999 75.9203 27.0299 75.9203 27.6699V31.8099H74.7803V27.8999C74.7803 27.0999 74.6504 26.4999 74.3904 26.0999C74.1304 25.6999 73.6604 25.4999 72.9804 25.4999C72.7304 25.4999 72.4904 25.5499 72.2504 25.6499C72.0104 25.7499 71.8004 25.8799 71.6104 26.0499C71.4204 26.2199 71.2504 26.3999 71.1104 26.6199C70.9704 26.8399 70.8604 27.0599 70.7904 27.2999V31.8199H69.6804V27.1299H69.6904Z" fill="#1842F5"/>
<path d="M0 40.08H6.92V41.15H4.05V49.11H6.92V50.18H0V49.11H2.86V41.15H0V40.08Z" fill="#1842F5"/>
<path d="M9.1298 45.4901C9.1298 45.4001 9.1298 45.2901 9.1298 45.1501C9.1298 45.0101 9.1198 44.8701 9.1098 44.7201C9.1098 44.5701 9.0898 44.42 9.0698 44.28C9.0598 44.14 9.0398 44.01 9.0198 43.91H8.0498V42.9701H9.9798L10.1098 44.14H10.1798C10.2798 43.98 10.3998 43.82 10.5598 43.66C10.7198 43.5 10.8998 43.36 11.1198 43.23C11.3298 43.1 11.5698 43 11.8298 42.92C12.0898 42.84 12.3598 42.8 12.6498 42.8C13.0898 42.8 13.4798 42.85 13.8298 42.94C14.1698 43.04 14.4498 43.2101 14.6798 43.4501C14.9098 43.7001 15.0798 44.03 15.1898 44.44C15.3098 44.86 15.3598 45.39 15.3598 46.03V50.17H14.2198V46.26C14.2198 45.46 14.0898 44.86 13.8298 44.46C13.5698 44.06 13.0998 43.8601 12.4198 43.8601C12.1698 43.8601 11.9298 43.91 11.6898 44.01C11.4498 44.11 11.2398 44.24 11.0498 44.41C10.8598 44.58 10.6898 44.76 10.5498 44.98C10.4098 45.2 10.2998 45.42 10.2298 45.66V50.18H9.1198V45.4901H9.1298Z" fill="#1842F5"/>
<path d="M22.7396 48.23C22.7396 47.92 22.6196 47.68 22.3796 47.5201C22.1396 47.35 21.8396 47.22 21.4896 47.12C21.1396 47.02 20.7496 46.93 20.3296 46.84C19.9096 46.75 19.5296 46.6401 19.1696 46.4901C18.8196 46.3501 18.5196 46.15 18.2796 45.91C18.0396 45.66 17.9196 45.3201 17.9196 44.8801C17.9196 44.5101 17.9996 44.2 18.1596 43.94C18.3196 43.68 18.5296 43.47 18.7896 43.3C19.0496 43.13 19.3496 43.01 19.6996 42.92C20.0496 42.84 20.4096 42.8 20.7796 42.8C21.4496 42.8 22.0296 42.88 22.5196 43.05C23.0096 43.22 23.3896 43.3901 23.6796 43.5801L23.2196 44.4901C22.8996 44.3201 22.5596 44.1501 22.1896 43.9901C21.8196 43.8301 21.3596 43.75 20.7996 43.75C20.5896 43.75 20.3796 43.77 20.1796 43.82C19.9696 43.86 19.7896 43.93 19.6196 44.01C19.4496 44.1 19.3196 44.21 19.2196 44.35C19.1196 44.49 19.0696 44.6601 19.0696 44.8601C19.0696 45.1101 19.1896 45.3 19.4296 45.44C19.6696 45.57 19.9696 45.69 20.3196 45.78C20.6696 45.87 21.0596 45.9601 21.4796 46.0401C21.8996 46.1201 22.2796 46.24 22.6396 46.39C22.9996 46.54 23.2896 46.75 23.5296 47.01C23.7696 47.27 23.8896 47.6201 23.8896 48.0601C23.8896 48.7201 23.6296 49.2701 23.0996 49.7001C22.5696 50.1301 21.7896 50.35 20.7396 50.35C20.4196 50.35 20.1096 50.32 19.7996 50.26C19.4896 50.2 19.1996 50.13 18.9296 50.03C18.6596 49.93 18.4196 49.83 18.1896 49.71C17.9696 49.59 17.7896 49.47 17.6396 49.34L18.2196 48.4001C18.3396 48.5201 18.4896 48.63 18.6796 48.75C18.8696 48.87 19.0796 48.98 19.3096 49.07C19.5396 49.17 19.7896 49.24 20.0496 49.3C20.3096 49.36 20.5796 49.39 20.8496 49.39C21.1196 49.39 21.3496 49.3701 21.5796 49.3301C21.8096 49.2901 21.9996 49.2201 22.1796 49.1301C22.3496 49.0401 22.4896 48.9201 22.5896 48.7701C22.6896 48.62 22.7396 48.44 22.7396 48.23Z" fill="#1842F5"/>
<path d="M25.54 42.97H27.26V41.54L28.4 41.22V42.97H32.25V43.93H28.4V47.33C28.4 48.03 28.57 48.55 28.91 48.89C29.25 49.23 29.74 49.39 30.37 49.39C30.8 49.39 31.18 49.31 31.5 49.14C31.82 48.97 32.11 48.8 32.37 48.61L32.74 49.46C32.4 49.73 32 49.95 31.54 50.11C31.07 50.27 30.6 50.36 30.11 50.36C29.73 50.36 29.36 50.3 29.02 50.19C28.68 50.08 28.38 49.91 28.12 49.68C27.86 49.45 27.65 49.15 27.5 48.79C27.35 48.43 27.27 48 27.27 47.5V43.92H25.55V42.96L25.54 42.97Z" fill="#1842F5"/>
<path d="M35.2598 50.18V49.21H37.7698V43.93H35.2598V42.97H38.9098V49.21H41.3598V50.18H35.2598Z" fill="#1842F5"/>
<path d="M37.3604 40.92C37.3604 40.66 37.4503 40.44 37.6203 40.25C37.7903 40.06 38.0103 39.97 38.2803 39.97C38.5503 39.97 38.7904 40.06 38.9804 40.25C39.1704 40.44 39.2603 40.66 39.2603 40.92C39.2603 41.18 39.1704 41.38 38.9804 41.55C38.7904 41.72 38.5603 41.81 38.2803 41.81C38.0003 41.81 37.7903 41.72 37.6203 41.55C37.4503 41.38 37.3604 41.17 37.3604 40.92Z" fill="#1842F5"/>
<path d="M42.8398 42.97H44.5598V41.54L45.6998 41.22V42.97H49.5498V43.93H45.6998V47.33C45.6998 48.03 45.8698 48.55 46.2098 48.89C46.5498 49.23 47.0398 49.39 47.6698 49.39C48.0998 49.39 48.4798 49.31 48.7998 49.14C49.1198 48.97 49.4098 48.8 49.6698 48.61L50.0398 49.46C49.6998 49.73 49.2998 49.95 48.8398 50.11C48.3698 50.27 47.8998 50.36 47.4098 50.36C47.0298 50.36 46.6598 50.3 46.3198 50.19C45.9798 50.08 45.6798 49.91 45.4198 49.68C45.1598 49.45 44.9498 49.15 44.7998 48.79C44.6498 48.43 44.5698 48 44.5698 47.5V43.92H42.8498V42.96L42.8398 42.97Z" fill="#1842F5"/>
<path d="M56.2702 42.97H58.3302V47.89C58.3302 48.36 58.3602 48.81 58.4202 49.25H59.3902V50.19H57.4602L57.4202 48.96H57.3602C57.1102 49.37 56.7802 49.71 56.3702 49.97C55.9602 50.23 55.4602 50.36 54.8702 50.36C54.4302 50.36 54.0502 50.31 53.7402 50.21C53.4302 50.11 53.1702 49.93 52.9702 49.68C52.7702 49.43 52.6202 49.1 52.5202 48.68C52.4202 48.26 52.3802 47.74 52.3802 47.12V43.95H51.4102V42.99H53.5202V46.9C53.5202 47.29 53.5402 47.65 53.5702 47.96C53.6002 48.27 53.6702 48.54 53.7802 48.75C53.8902 48.97 54.0402 49.13 54.2502 49.24C54.4602 49.35 54.7302 49.41 55.0702 49.41C55.5702 49.41 56.0002 49.25 56.3702 48.92C56.7402 48.59 57.0202 48.18 57.2102 47.69V43.95H56.2902V42.99L56.2702 42.97Z" fill="#1842F5"/>
<path d="M60.1504 42.97H61.8704V41.54L63.0104 41.22V42.97H66.8604V43.93H63.0104V47.33C63.0104 48.03 63.1804 48.55 63.5204 48.89C63.8604 49.23 64.3504 49.39 64.9804 49.39C65.4104 49.39 65.7904 49.31 66.1104 49.14C66.4304 48.97 66.7204 48.8 66.9804 48.61L67.3504 49.46C67.0104 49.73 66.6104 49.95 66.1504 50.11C65.6804 50.27 65.2104 50.36 64.7204 50.36C64.3404 50.36 63.9704 50.3 63.6304 50.19C63.2904 50.08 62.9904 49.91 62.7304 49.68C62.4704 49.45 62.2604 49.15 62.1104 48.79C61.9604 48.43 61.8804 48 61.8804 47.5V43.92H60.1604V42.96L60.1504 42.97Z" fill="#1842F5"/>
<path d="M75.1295 48.73C74.9495 48.84 74.7495 48.93 74.5195 49.02C74.2895 49.11 74.0495 49.18 73.7895 49.24C73.5395 49.3 73.2795 49.33 73.0195 49.33C72.2395 49.33 71.6195 49.12 71.1595 48.69C70.6995 48.26 70.4595 47.62 70.4595 46.75H76.0295C76.0795 45.93 76.0295 45.27 75.8595 44.75C75.6995 44.24 75.4595 43.83 75.1595 43.54C74.8595 43.25 74.5095 43.05 74.1095 42.94C73.7195 42.83 73.3195 42.78 72.9095 42.78C72.3495 42.78 71.8495 42.86 71.3995 43.03C70.9495 43.2 70.5595 43.44 70.2495 43.76C69.9295 44.08 69.6895 44.47 69.5195 44.94C69.3495 45.41 69.2695 45.95 69.2695 46.55C69.2695 47.15 69.3495 47.65 69.4995 48.11C69.6495 48.57 69.8795 48.97 70.1795 49.3C70.4795 49.63 70.8495 49.89 71.2895 50.07C71.7295 50.25 72.2395 50.34 72.8195 50.34C73.1295 50.34 73.4295 50.31 73.7295 50.26C74.0295 50.21 74.3195 50.13 74.5995 50.04C74.8795 49.94 75.1395 49.83 75.3695 49.69C75.6095 49.56 75.8095 49.41 75.9795 49.26L75.5295 48.44C75.4295 48.53 75.2995 48.62 75.1195 48.73H75.1295ZM70.7695 44.81C70.9095 44.55 71.0895 44.35 71.2995 44.19C71.5195 44.03 71.7595 43.92 72.0495 43.85C72.3395 43.78 72.6295 43.75 72.9495 43.75C73.5395 43.75 74.0095 43.93 74.3695 44.28C74.7295 44.63 74.9295 45.12 74.9795 45.76H70.5095C70.5495 45.39 70.6395 45.07 70.7795 44.82L70.7695 44.81Z" fill="#1842F5"/>
<path d="M159.52 29.86C157.83 27.99 156.18 26.84 153.01 25.23C158.45 22.93 160.81 19.15 160.8 13.88C160.8 11.14 160.13 8.73001 158.82 6.65001C157.51 4.57001 155.61 2.94001 153.12 1.76001C150.63 0.58001 146.61 0.0100098 140.07 0.0100098L124.05 0.0600098V53.7L144.35 53.64C148.45 53.63 151.85 52.94 154.57 51.57C157.29 50.2 159.35 48.44 160.75 46.29C162.15 44.14 162.85 41.69 162.84 38.95C162.83 35.5 161.79 32.39 159.51 29.88L159.52 29.86ZM144.6 40.61H137.61V13.07H144.6V40.6V40.61Z" fill="#1842F5"/>
</g>
<defs>
<clipPath id="clip0_2486_21">
<rect width="162.85" height="53.68" fill="white"/>
</clipPath>
</defs>
</svg>
